<svg width="286" height="120" viewBox="0 0 286 120" fill="none" xmlns="http://www.w3.org/2000/svg">
<path d="M142.994 54.5907H135.232V30.9467H143.239C145.589 30.9467 147.606 31.42 149.292 32.3667C150.978 33.3057 152.27 34.6565 153.167 36.419C154.073 38.1738 154.525 40.2789 154.525 42.7341C154.525 45.197 154.069 47.3136 153.155 49.0838C152.25 50.854 150.939 52.2163 149.222 53.1707C147.505 54.1174 145.429 54.5907 142.994 54.5907ZM138.849 51.4736H142.795C144.621 51.4736 146.139 51.135 147.349 50.4577C148.558 49.7727 149.464 48.7836 150.065 47.4906C150.666 46.1899 150.966 44.6044 150.966 42.7341C150.966 40.8792 150.666 39.3052 150.065 38.0122C149.472 36.7192 148.586 35.7378 147.407 35.0682C146.229 34.3986 144.765 34.0638 143.017 34.0638H138.849V51.4736Z" fill="#1F1F1F"/>
<path d="M158.413 54.5907V36.8577H161.913V54.5907H158.413ZM160.181 34.1215C159.572 34.1215 159.049 33.9214 158.612 33.5212C158.183 33.1133 157.968 32.6284 157.968 32.0665C157.968 31.497 158.183 31.0121 158.612 30.6119C159.049 30.204 159.572 30 160.181 30C160.79 30 161.309 30.204 161.738 30.6119C162.175 31.0121 162.393 31.497 162.393 32.0665C162.393 32.6284 162.175 33.1133 161.738 33.5212C161.309 33.9214 160.79 34.1215 160.181 34.1215Z" fill="#1F1F1F"/>
<path d="M179.768 41.1871L176.595 41.7412C176.463 41.341 176.252 40.96 175.963 40.5983C175.682 40.2365 175.3 39.9402 174.816 39.7093C174.332 39.4784 173.727 39.363 173.001 39.363C172.01 39.363 171.183 39.5823 170.519 40.021C169.856 40.452 169.524 41.01 169.524 41.695C169.524 42.2877 169.747 42.7649 170.192 43.1266C170.636 43.4884 171.354 43.7847 172.346 44.0156L175.202 44.6621C176.857 45.0392 178.09 45.6203 178.902 46.4054C179.713 47.1904 180.119 48.2102 180.119 49.4648C180.119 50.5269 179.807 51.4736 179.183 52.3048C178.566 53.1284 177.704 53.7749 176.595 54.2444C175.495 54.7139 174.219 54.9486 172.767 54.9486C170.754 54.9486 169.111 54.5253 167.838 53.6787C166.566 52.8244 165.786 51.6121 165.497 50.042L168.88 49.5341C169.091 50.4038 169.524 51.0618 170.18 51.5082C170.835 51.947 171.69 52.1663 172.744 52.1663C173.891 52.1663 174.808 51.9316 175.495 51.4621C176.182 50.9849 176.525 50.4038 176.525 49.7188C176.525 49.1646 176.314 48.699 175.893 48.3218C175.479 47.9447 174.843 47.6599 173.985 47.4675L170.941 46.8094C169.263 46.4323 168.022 45.832 167.218 45.0084C166.422 44.1849 166.024 43.142 166.024 41.8798C166.024 40.833 166.32 39.9171 166.914 39.1321C167.507 38.347 168.326 37.7351 169.372 37.2964C170.418 36.85 171.616 36.6268 172.966 36.6268C174.91 36.6268 176.439 37.0424 177.555 37.8737C178.671 38.6972 179.409 39.8017 179.768 41.1871Z" fill="#1F1F1F"/>
<path d="M191.213 54.9486C189.472 54.9486 187.974 54.56 186.717 53.7826C185.469 52.9975 184.509 51.9162 183.837 50.5385C183.166 49.1608 182.831 47.583 182.831 45.805C182.831 44.004 183.174 42.4147 183.861 41.037C184.548 39.6516 185.515 38.5702 186.764 37.7928C188.013 37.0155 189.484 36.6268 191.178 36.6268C192.544 36.6268 193.761 36.8769 194.83 37.3772C195.9 37.8698 196.762 38.5625 197.418 39.4553C198.081 40.3481 198.475 41.391 198.6 42.584H195.193C195.006 41.7528 194.577 41.037 193.906 40.4366C193.242 39.8363 192.352 39.5361 191.236 39.5361C190.261 39.5361 189.406 39.7901 188.672 40.2981C187.947 40.7984 187.381 41.5142 186.975 42.4455C186.569 43.3691 186.366 44.462 186.366 45.7242C186.366 47.0173 186.565 48.1333 186.963 49.0723C187.361 50.0112 187.923 50.7386 188.649 51.2543C189.383 51.7699 190.245 52.0278 191.236 52.0278C191.9 52.0278 192.501 51.9085 193.039 51.6699C193.586 51.4236 194.042 51.0734 194.409 50.6193C194.784 50.1652 195.045 49.6187 195.193 48.9799H198.6C198.475 50.1267 198.097 51.1504 197.465 52.0509C196.832 52.9514 195.986 53.6595 194.924 54.1751C193.87 54.6908 192.633 54.9486 191.213 54.9486Z" fill="#1F1F1F"/>
<path d="M209.589 54.9486C207.903 54.9486 206.431 54.5677 205.175 53.8057C203.918 53.0437 202.943 51.9777 202.248 50.6077C201.553 49.2377 201.206 47.6368 201.206 45.805C201.206 43.9655 201.553 42.3569 202.248 40.9792C202.943 39.6016 203.918 38.5317 205.175 37.7698C206.431 37.0078 207.903 36.6268 209.589 36.6268C211.274 36.6268 212.746 37.0078 214.002 37.7698C215.259 38.5317 216.234 39.6016 216.929 40.9792C217.624 42.3569 217.971 43.9655 217.971 45.805C217.971 47.6368 217.624 49.2377 216.929 50.6077C216.234 51.9777 215.259 53.0437 214.002 53.8057C212.746 54.5677 211.274 54.9486 209.589 54.9486ZM209.6 52.0509C210.693 52.0509 211.598 51.7661 212.316 51.1965C213.034 50.627 213.565 49.8689 213.908 48.9222C214.26 47.9755 214.435 46.9326 214.435 45.7935C214.435 44.6621 214.26 43.623 213.908 42.6764C213.565 41.722 213.034 40.9562 212.316 40.3789C211.598 39.8017 210.693 39.513 209.6 39.513C208.5 39.513 207.587 39.8017 206.861 40.3789C206.143 40.9562 205.608 41.722 205.257 42.6764C204.913 43.623 204.742 44.6621 204.742 45.7935C204.742 46.9326 204.913 47.9755 205.257 48.9222C205.608 49.8689 206.143 50.627 206.861 51.1965C207.587 51.7661 208.5 52.0509 209.6 52.0509Z" fill="#1F1F1F"/>
<path d="M232.94 47.2366V36.8577H236.452V54.5907H233.01V51.5198H232.823C232.409 52.4665 231.745 53.2554 230.832 53.8865C229.927 54.5099 228.799 54.8216 227.449 54.8216C226.294 54.8216 225.271 54.5715 224.382 54.0712C223.5 53.5632 222.805 52.8128 222.298 51.82C221.798 50.8271 221.548 49.5995 221.548 48.1371V36.8577H225.049V47.7215C225.049 48.9299 225.388 49.892 226.067 50.6077C226.746 51.3235 227.628 51.6814 228.713 51.6814C229.369 51.6814 230.021 51.5198 230.668 51.1965C231.324 50.8733 231.866 50.3845 232.296 49.7303C232.733 49.0761 232.947 48.2449 232.94 47.2366Z" fill="#1F1F1F"/>
<path d="M240.826 54.5907V36.8577H244.209V39.6747H244.396C244.724 38.7203 245.302 37.9699 246.129 37.4234C246.964 36.8692 247.908 36.5922 248.962 36.5922C249.181 36.5922 249.438 36.5999 249.735 36.6153C250.039 36.6307 250.277 36.6499 250.449 36.673V39.9748C250.308 39.9364 250.059 39.894 249.7 39.8478C249.341 39.794 248.982 39.767 248.623 39.767C247.795 39.767 247.058 39.9402 246.41 40.2866C245.77 40.6252 245.263 41.0985 244.888 41.7066C244.513 42.3069 244.326 42.9919 244.326 43.7616V54.5907H240.826Z" fill="#1F1F1F"/>
<path d="M266.623 41.1871L263.451 41.7412C263.318 41.341 263.107 40.96 262.819 40.5983C262.538 40.2365 262.155 39.9402 261.671 39.7093C261.187 39.4784 260.583 39.363 259.857 39.363C258.865 39.363 258.038 39.5823 257.375 40.021C256.711 40.452 256.38 41.01 256.38 41.695C256.38 42.2877 256.602 42.7649 257.047 43.1266C257.492 43.4884 258.21 43.7847 259.201 44.0156L262.058 44.6621C263.712 45.0392 264.945 45.6203 265.757 46.4054C266.569 47.1904 266.975 48.2102 266.975 49.4648C266.975 50.5269 266.662 51.4736 266.038 52.3048C265.421 53.1284 264.559 53.7749 263.451 54.2444C262.35 54.7139 261.074 54.9486 259.623 54.9486C257.609 54.9486 255.966 54.5253 254.694 53.6787C253.422 52.8244 252.641 51.6121 252.352 50.042L255.736 49.5341C255.946 50.4038 256.38 51.0618 257.035 51.5082C257.691 51.947 258.545 52.1663 259.599 52.1663C260.746 52.1663 261.663 51.9316 262.35 51.4621C263.037 50.9849 263.381 50.4038 263.381 49.7188C263.381 49.1646 263.17 48.699 262.748 48.3218C262.335 47.9447 261.699 47.6599 260.84 47.4675L257.796 46.8094C256.118 46.4323 254.877 45.832 254.073 45.0084C253.277 44.1849 252.879 43.142 252.879 41.8798C252.879 40.833 253.176 39.9171 253.769 39.1321C254.362 38.347 255.182 37.7351 256.227 37.2964C257.273 36.85 258.471 36.6268 259.822 36.6268C261.765 36.6268 263.295 37.0424 264.411 37.8737C265.527 38.6972 266.264 39.8017 266.623 41.1871Z" fill="#1F1F1F"/>
<path d="M278.244 54.9486C276.472 54.9486 274.946 54.5754 273.666 53.8288C272.394 53.0745 271.411 52.0162 270.716 50.6539C270.029 49.2839 269.686 47.6792 269.686 45.8397C269.686 44.0233 270.029 42.4224 270.716 41.037C271.411 39.6516 272.379 38.5702 273.62 37.7928C274.868 37.0155 276.328 36.6268 277.998 36.6268C279.013 36.6268 279.996 36.7923 280.948 37.1232C281.9 37.4542 282.755 37.9737 283.512 38.6818C284.269 39.3899 284.866 40.3096 285.303 41.441C285.74 42.5648 285.959 43.9309 285.959 45.5395V46.7633H271.664V44.1772H282.529C282.529 43.269 282.341 42.4647 281.967 41.7643C281.592 41.0562 281.065 40.4982 280.386 40.0903C279.715 39.6824 278.927 39.4784 278.021 39.4784C277.038 39.4784 276.18 39.717 275.446 40.1942C274.72 40.6637 274.158 41.2794 273.76 42.0414C273.37 42.7957 273.175 43.6153 273.175 44.5005V46.5208C273.175 47.7061 273.385 48.7144 273.807 49.5456C274.236 50.3768 274.833 51.0118 275.598 51.4505C276.363 51.8815 277.257 52.097 278.279 52.097C278.942 52.097 279.547 52.0047 280.094 51.82C280.64 51.6275 281.112 51.3428 281.51 50.9656C281.908 50.5885 282.213 50.1229 282.423 49.5687L285.737 50.1575C285.471 51.1196 284.995 51.9623 284.308 52.6858C283.629 53.4016 282.775 53.9596 281.744 54.3598C280.722 54.7524 279.555 54.9486 278.244 54.9486Z" fill="#1F1F1F"/>
<path d="M151.458 67.1756C151.232 66.4752 150.927 65.848 150.545 65.2938C150.17 64.7319 149.721 64.2548 149.198 63.8622C148.675 63.462 148.078 63.158 147.407 62.9502C146.744 62.7424 146.014 62.6385 145.218 62.6385C143.868 62.6385 142.65 62.981 141.565 63.666C140.48 64.351 139.622 65.3554 138.99 66.6792C138.365 67.9953 138.053 69.6078 138.053 71.5165C138.053 73.433 138.369 75.0531 139.001 76.377C139.634 77.7008 140.5 78.7052 141.6 79.3902C142.701 80.0752 143.954 80.4177 145.358 80.4177C146.662 80.4177 147.797 80.156 148.765 79.6326C149.741 79.1093 150.494 78.3704 151.025 77.416C151.563 76.4539 151.833 75.3225 151.833 74.0218L152.769 74.195H145.909V71.251H155.333V73.941C155.333 75.9267 154.904 77.6507 154.045 79.1131C153.194 80.5678 152.016 81.6915 150.51 82.4842C149.011 83.277 147.294 83.6734 145.358 83.6734C143.189 83.6734 141.284 83.1808 139.645 82.1956C138.014 81.2104 136.742 79.8135 135.829 78.0048C134.916 76.1884 134.459 74.0333 134.459 71.5396C134.459 69.6539 134.724 67.9607 135.255 66.4598C135.786 64.959 136.531 63.6852 137.491 62.6385C138.459 61.584 139.595 60.7797 140.898 60.2256C142.209 59.6637 143.641 59.3828 145.195 59.3828C146.49 59.3828 147.696 59.5714 148.812 59.9485C149.936 60.3256 150.935 60.8605 151.809 61.5532C152.691 62.2459 153.421 63.0695 153.998 64.0239C154.576 64.9705 154.966 66.0211 155.169 67.1756H151.458Z" fill="#1F1F1F"/>
<path d="M159.314 83.3501V65.6171H162.698V68.434H162.885C163.213 67.4796 163.791 66.7292 164.618 66.1828C165.453 65.6286 166.397 65.3515 167.451 65.3515C167.67 65.3515 167.927 65.3592 168.224 65.3746C168.528 65.39 168.766 65.4093 168.938 65.4323V68.7342C168.797 68.6957 168.548 68.6534 168.189 68.6072C167.83 68.5533 167.471 68.5264 167.112 68.5264C166.284 68.5264 165.547 68.6996 164.899 69.0459C164.259 69.3846 163.752 69.8579 163.377 70.4659C163.002 71.0663 162.815 71.7513 162.815 72.5209V83.3501H159.314Z" fill="#1F1F1F"/>
<path d="M176.71 83.7426C175.57 83.7426 174.54 83.5348 173.619 83.1192C172.698 82.6959 171.968 82.084 171.43 81.2836C170.899 80.4831 170.634 79.5018 170.634 78.3396C170.634 77.339 170.829 76.5155 171.219 75.869C171.609 75.2225 172.136 74.7106 172.799 74.3335C173.463 73.9564 174.204 73.6716 175.024 73.4792C175.843 73.2868 176.678 73.1405 177.529 73.0405C178.606 72.9173 179.48 72.8173 180.151 72.7403C180.823 72.6556 181.311 72.5209 181.615 72.3362C181.919 72.1515 182.071 71.8513 182.071 71.4357V71.3549C182.071 70.3466 181.783 69.5654 181.205 69.0113C180.635 68.4571 179.785 68.18 178.653 68.18C177.474 68.18 176.546 68.4379 175.867 68.9536C175.195 69.4615 174.731 70.0272 174.473 70.6507L171.184 69.9118C171.574 68.8343 172.144 67.9645 172.893 67.3026C173.65 66.633 174.52 66.1481 175.504 65.848C176.487 65.5401 177.521 65.3862 178.606 65.3862C179.324 65.3862 180.085 65.4708 180.889 65.6402C181.701 65.8018 182.458 66.1019 183.16 66.5407C183.87 66.9794 184.452 67.6066 184.905 68.4225C185.357 69.2306 185.584 70.2812 185.584 71.5743V83.3501H182.165V80.9257H182.025C181.798 81.3721 181.459 81.8108 181.006 82.2418C180.553 82.6728 179.972 83.0307 179.262 83.3155C178.551 83.6003 177.701 83.7426 176.71 83.7426ZM177.471 80.9718C178.438 80.9718 179.266 80.7833 179.952 80.4061C180.647 80.029 181.174 79.5364 181.533 78.9284C181.9 78.3127 182.083 77.6546 182.083 76.9542V74.6683C181.958 74.7914 181.716 74.9069 181.357 75.0147C181.006 75.1147 180.604 75.2032 180.151 75.2802C179.699 75.3495 179.258 75.4149 178.829 75.4765C178.399 75.5303 178.04 75.5765 177.752 75.615C177.072 75.6997 176.452 75.842 175.89 76.0421C175.336 76.2423 174.891 76.5309 174.555 76.908C174.228 77.2775 174.064 77.77 174.064 78.3858C174.064 79.2401 174.384 79.8866 175.024 80.3253C175.664 80.7563 176.479 80.9718 177.471 80.9718Z" fill="#1F1F1F"/>
<path d="M189.916 90V65.6171H193.335V68.4918H193.628C193.83 68.1223 194.123 67.6952 194.506 67.2103C194.888 66.7254 195.419 66.3021 196.098 65.9403C196.777 65.5709 197.674 65.3862 198.79 65.3862C200.242 65.3862 201.538 65.7479 202.677 66.4714C203.817 67.1949 204.71 68.2378 205.358 69.6001C206.014 70.9624 206.342 72.6018 206.342 74.5182C206.342 76.4347 206.018 78.0779 205.37 79.4479C204.722 80.8102 203.832 81.8608 202.701 82.5997C201.569 83.3309 200.277 83.6965 198.826 83.6965C197.733 83.6965 196.839 83.5156 196.145 83.1538C195.458 82.7921 194.919 82.3688 194.529 81.8839C194.139 81.399 193.838 80.968 193.628 80.5909H193.417V90H189.916ZM193.347 74.4836C193.347 75.7304 193.53 76.8234 193.897 77.7624C194.264 78.7013 194.794 79.4364 195.489 79.9674C196.184 80.4908 197.034 80.7525 198.041 80.7525C199.087 80.7525 199.961 80.4793 200.664 79.9328C201.366 79.3786 201.897 78.6282 202.256 77.6815C202.623 76.7348 202.806 75.6689 202.806 74.4836C202.806 73.3137 202.627 72.2631 202.268 71.3318C201.916 70.4005 201.386 69.6655 200.675 69.1267C199.973 68.588 199.095 68.3186 198.041 68.3186C197.027 68.3186 196.168 68.5764 195.466 69.0921C194.771 69.6078 194.244 70.3274 193.885 71.251C193.526 72.1746 193.347 73.2521 193.347 74.4836Z" fill="#1F1F1F"/>
<path d="M213.434 72.8211V83.3501H209.934V59.706H213.387V68.5033H213.61C214.031 67.5489 214.675 66.7908 215.542 66.2289C216.408 65.6671 217.54 65.3862 218.937 65.3862C220.17 65.3862 221.247 65.6363 222.168 66.1366C223.097 66.6369 223.815 67.3834 224.322 68.3763C224.837 69.3615 225.095 70.5929 225.095 72.0707V83.3501H221.594V72.4863C221.594 71.1856 221.255 70.1773 220.576 69.4615C219.897 68.738 218.952 68.3763 217.743 68.3763C216.915 68.3763 216.174 68.5495 215.518 68.8958C214.87 69.2422 214.359 69.7502 213.985 70.4198C213.618 71.0817 213.434 71.8821 213.434 72.8211Z" fill="#1F1F1F"/>
<path d="M242.911 69.9464L239.739 70.5006C239.606 70.1004 239.395 69.7194 239.106 69.3576C238.825 68.9959 238.443 68.6996 237.959 68.4687C237.475 68.2378 236.87 68.1223 236.144 68.1223C235.153 68.1223 234.326 68.3417 233.663 68.7804C232.999 69.2114 232.667 69.7694 232.667 70.4544C232.667 71.047 232.89 71.5242 233.335 71.886C233.78 72.2477 234.498 72.544 235.489 72.7749L238.345 73.4214C240 73.7986 241.233 74.3797 242.045 75.1647C242.857 75.9498 243.262 76.9696 243.262 78.2241C243.262 79.2863 242.95 80.233 242.326 81.0642C241.709 81.8877 240.847 82.5343 239.739 83.0038C238.638 83.4733 237.362 83.708 235.91 83.708C233.897 83.708 232.254 83.2847 230.982 82.4381C229.709 81.5837 228.929 80.3715 228.64 78.8014L232.024 78.2934C232.234 79.1631 232.667 79.8212 233.323 80.2676C233.979 80.7063 234.833 80.9257 235.887 80.9257C237.034 80.9257 237.951 80.6909 238.638 80.2214C239.325 79.7442 239.668 79.1631 239.668 78.4781C239.668 77.924 239.458 77.4583 239.036 77.0812C238.623 76.7041 237.986 76.4193 237.128 76.2269L234.084 75.5688C232.406 75.1917 231.165 74.5913 230.361 73.7678C229.565 72.9443 229.167 71.9014 229.167 70.6391C229.167 69.5924 229.464 68.6765 230.057 67.8914C230.65 67.1064 231.469 66.4945 232.515 66.0558C233.561 65.6094 234.759 65.3862 236.109 65.3862C238.053 65.3862 239.583 65.8018 240.699 66.633C241.815 67.4566 242.552 68.561 242.911 69.9464Z" fill="#1F1F1F"/>
<path fill-rule="evenodd" clip-rule="evenodd" d="M72.1883 114.551C64.9225 121.816 53.1422 121.816 45.8764 114.551L6.40838 75.0826C-0.857478 67.8168 -0.857481 56.0365 6.40837 48.7707L26.1424 29.0367C29.7753 25.4037 35.6654 25.4037 39.2984 29.0367C42.9313 32.6696 42.9313 38.5597 39.2984 42.1927L32.7204 48.7707C25.4545 56.0365 25.4545 67.8168 32.7204 75.0826L52.4543 94.8166C56.0873 98.4496 61.9774 98.4496 65.6103 94.8166C69.2433 91.1837 69.2433 85.2936 65.6103 81.6606L59.0323 75.0826C51.7665 67.8168 51.7665 56.0365 59.0323 48.7707C66.2982 41.5048 66.2982 29.7245 59.0323 22.4587L52.4543 15.8807C48.8214 12.2478 48.8214 6.35762 52.4543 2.72469C56.0873 -0.908234 61.9774 -0.90823 65.6103 2.7247L111.656 48.7707C118.922 56.0365 118.922 67.8168 111.656 75.0826L72.1883 114.551ZM91.9223 55.3487C88.2894 51.7157 82.3992 51.7157 78.7663 55.3487C75.1334 58.9816 75.1334 64.8717 78.7663 68.5046C82.3992 72.1376 88.2894 72.1376 91.9223 68.5046C95.5552 64.8717 95.5552 58.9816 91.9223 55.3487Z" fill="#1F1F1F"/>
</svg>
